# xmcd CD database file
#
# Track frame offsets:
#	150
#	10050
#	19130
#	38090
#	51810
#	69455
#	79627
#	93037
#	105755
#	120197
#	136665
#	148590
#	163700
#	192225
#	207147
#	226130
#	239860
#	251705
#	265292
#	282240
#
# Disc length: 3978 seconds
#
# Revision: 5
# Processed by: cddbd v1.5.1PL0 Copyright (c) Steve Scherf et al.
# Submitted via: CDex 1.51
#
DISCID=020f8814
DTITLE=Ray Charles - His Greatest Hits - Vol 2
DYEAR=1987
DGENRE=Blues
TTITLE0=RAY CHARLES - Busted (1963)
TTITLE1=RAY CHARLES - Hit The Road Jack (1961)
TTITLE2=RAY CHARLES - I Can't Stop Loving You (1962)
TTITLE3=RAY CHARLES - You Are My Sunshine (1962)
TTITLE4=RAY CHARLES - Ruby (1960)
TTITLE5=RAY CHARLES - Sticks And Stones (1960)
TTITLE6=RAY CHARLES - Take These Chains From My Heart (1963)
TTITLE7=RAY CHARLES - Them That Got (1961)
TTITLE8=RAY CHARLES - No One (1963)
TTITLE9=RAY CHARLES - Without Love (There Is Nothing) (1963)
TTITLE10=RAY CHARLES - Don't Set Me Free (1963)
TTITLE11=RAY CHARLES - I'm A Fool To Care (1965)
TTITLE12=RAY CHARLES - Makin' Whoopee, Parts and 2 (1964)
TTITLE13=RAY CHARLES - Hardhearted Hannah (1968)
TTITLE14=RAY CHARLES - Baby It's Cold Outside (1962)
TTITLE15=RAY CHARLES - At The Club (1962)
TTITLE16=RAY CHARLES - In The Heat Of The Night (1967)
TTITLE17=RAY CHARLES - Eleanor Rigby (1968)
TTITLE18=RAY CHARLES - Look At What They Done To My Song, Ma (1972)
TTITLE19=RAY CHARLES - America The Beautiful (1972)
EXTD=YEAR: 1987
EXTT0=
EXTT1=
EXTT2=
EXTT3=
EXTT4=
EXTT5=
EXTT6=
EXTT7=
EXTT8=
EXTT9=
EXTT10=
EXTT11=
EXTT12=
EXTT13=
EXTT14=
EXTT15=
EXTT16=
EXTT17=
EXTT18=
EXTT19=
PLAYORDER=
